<svg width="382" height="408" viewBox="0 0 382 408" fill="none" xmlns="http://www.w3.org/2000/svg">
<path d="M220.321 367.172C216.699 355.84 214.888 263.992 214.888 226.418C255.936 227.015 306.038 228.207 312.678 231.189C326.562 235.961 333.805 258.028 337.427 277.71L359.762 274.131C359.762 274.131 357.347 241.925 357.347 214.49C357.347 187.055 358.555 163.198 358.555 163.198L336.22 159.62C335.013 173.337 327.769 194.212 313.885 197.79C306.641 200.176 255.936 201.369 214.888 202.562V195.405C214.888 179.898 214.284 160.813 214.284 141.728C214.284 107.136 214.888 73.7365 217.906 66.5795C218.51 64.1939 220.321 62.4046 221.528 60.6154C227.565 57.0369 239.034 57.0369 266.198 57.0369C292.154 57.0369 318.714 58.2297 333.805 70.7544C345.274 80.297 362.904 44.5122 362.301 66.5795L358.555 94.6109C364.591 65.3867 362.176 57.0369 359.762 31.9876L178.475 16.3317L115.852 63.2992C136.979 66.8777 143.055 57.0369 147.884 73.14C151.506 85.0683 153.317 187.055 153.317 218.665C153.317 250.871 153.317 356.436 144.866 373.136C140.64 383.871 150.221 369.557 131.508 373.136H162.82C162.82 373.136 172.849 380.144 194.131 393.414C221.899 393.414 280.081 399.773 280.081 399.773V393.414C258.954 389.835 225.15 383.275 220.321 367.172Z" fill="#174D4D"/>
<path d="M226.874 29.4826C293.831 29.4826 329.585 57.6632 343.887 123.418H364.039C368.589 98.9946 371.84 74.5715 371.84 50.7746C371.84 42.0073 371.19 35.1188 370.539 26.3515C341.936 11.3219 300.332 0.675903 237.275 0.675903C101.411 0.675903 0 88.3486 0 214.222C0 329.449 107.261 407.728 227.524 407.728C299.032 407.728 349.737 386.436 373.79 368.901C375.09 353.872 375.74 341.973 375.74 330.701C375.74 315.671 374.44 301.268 373.14 284.986L352.988 283.733C333.486 349.488 291.231 377.668 235.975 377.668C153.416 377.668 74.758 303.773 74.758 198.566C74.758 95.2372 144.315 29.4826 226.874 29.4826Z" fill="#174D4D"/>
<path d="M233.134 29.4826C300.091 29.4826 335.845 57.6632 350.146 123.418H370.299C374.849 98.9946 378.099 74.5715 378.099 50.7746C378.099 42.0073 377.449 35.1188 376.799 26.3515C348.196 11.3219 306.592 0.675903 243.535 0.675903C107.671 0.675903 6.25989 88.3486 6.25989 214.222C6.25989 329.449 113.521 407.728 233.784 407.728C305.292 407.728 355.997 386.436 380.05 368.901C381.35 353.872 382 341.973 382 330.701C382 315.671 380.7 301.268 379.4 284.986L359.247 283.733C339.745 349.488 297.491 377.668 242.235 377.668C159.676 377.668 81.0179 303.773 81.0179 198.566C81.0179 95.2372 150.575 29.4826 233.134 29.4826Z" fill="#F5C946"/>
</svg>
