<svg width="85" height="85" viewBox="0 0 85 85" fill="none" xmlns="http://www.w3.org/2000/svg">
<g clip-path="url(#clip0)">
<path d="M42.5 85C65.9721 85 85 65.9721 85 42.5C85 19.0279 65.9721 0 42.5 0C19.0279 0 0 19.0279 0 42.5C0 65.9721 19.0279 85 42.5 85Z" fill="#A1D8DF"/>
<path d="M84.7167 46.75C62.9 39.3833 45.6167 22.1 38.25 0.283339C42.5 -0.283328 46.4667 5.60284e-06 50.7167 0.850006C56.95 16.15 69.1333 28.3333 84.4333 34.5667C85 38.5333 85.2833 42.5 84.7167 46.75Z" fill="#174D4D"/>
<path d="M76.2168 68.2834C64.0335 63.1834 52.4168 58.9334 39.1001 45.6167C25.7835 32.3 21.2501 20.1167 16.4335 8.50004C19.5501 6.23337 22.9501 4.25004 26.3501 2.83337L30.3168 12.4667C38.2501 31.45 52.9835 46.1834 71.9668 54.1167L81.6001 58.0834C80.4668 62.05 78.4835 65.1667 76.2168 68.2834Z" fill="#174D4D"/>
<path d="M66.5834 77.6333C58.9334 83.0166 52.4168 83.5833 52.1334 83.8666C26.6334 73.1 11.9001 58.0833 1.13342 32.8666C1.41676 32.5833 2.26676 26.0666 7.36676 18.4166C14.4501 35.7 22.6668 59.2166 54.1168 72.25L66.5834 77.6333Z" fill="#174D4D"/>
</g>
<defs>
<clipPath id="clip0">
<rect width="85" height="85" fill="white"/>
</clipPath>
</defs>
</svg>
