<svg width="70" height="94" viewBox="0 0 70 94" fill="none" xmlns="http://www.w3.org/2000/svg">
<g clip-path="url(#clip0)">
<path d="M70 12.5333H0V94H70V12.5333Z" fill="#68C7D3"/>
<path d="M63.6364 87.7334L63.6364 18.8L6.36362 18.8L6.36362 87.7334L63.6364 87.7334Z" fill="#D1E6E9"/>
<path d="M44.5454 9.4C44.5454 4.07333 40.4091 0 35 0C29.5909 0 25.4545 4.07333 25.4545 9.4H15.9091V21.9333H54.0909V9.4H44.5454Z" fill="#174D4D"/>
<path d="M38.1819 9.40009C38.1819 13.4734 31.8182 13.4734 31.8182 9.40009C31.8182 5.32676 38.1819 5.32676 38.1819 9.40009Z" fill="#D1E6E9"/>
<path d="M57.2728 59.5333H12.7273V65.8H57.2728V59.5333Z" fill="#A1D8DF"/>
<path d="M44.5455 72.0667H12.7273V78.3333H44.5455V72.0667Z" fill="#A1D8DF"/>
<path d="M38.1819 31.3334H31.8182V50.1334H38.1819V31.3334Z" fill="#68C7D3"/>
<path d="M44.5455 43.8666V37.6H25.4546V43.8666H44.5455Z" fill="#68C7D3"/>
</g>
<defs>
<clipPath id="clip0">
<rect width="70" height="94" fill="white"/>
</clipPath>
</defs>
</svg>
