<svg width="84" height="84" viewBox="0 0 84 84" fill="none" xmlns="http://www.w3.org/2000/svg">
<g clip-path="url(#clip0)">
<path d="M83.9999 83.9999L22.1199 14.2799L14.2799 22.1199L83.9999 83.9999Z" fill="#A1D8DF"/>
<path d="M22.12 22.12C25.48 18.76 25.48 13.44 22.12 10.36L14.28 2.52C10.92 -0.84 5.6 -0.84 2.52 2.52C-0.84 5.88 -0.84 11.2 2.52 14.28L10.36 22.12C13.72 25.48 19.04 25.48 22.12 22.12Z" fill="#174D4D"/>
<path d="M0 83.9999L61.88 14.2799L69.72 22.1199L0 83.9999Z" fill="#D1E6E9"/>
<path d="M61.8799 22.12C58.5199 18.76 58.5199 13.44 61.8799 10.36L69.7199 2.52C73.0799 -0.84 78.3999 -0.84 81.4799 2.52C84.8399 5.88 84.8399 11.2 81.4799 14.28L73.6399 22.12C70.2799 25.48 64.9599 25.48 61.8799 22.12Z" fill="#174D4D"/>
</g>
<defs>
<clipPath id="clip0">
<rect width="84" height="84" fill="white"/>
</clipPath>
</defs>
</svg>
