<svg width="87" height="58" viewBox="0 0 87 58" fill="none" xmlns="http://www.w3.org/2000/svg">
<path d="M0 0H9.28L23.2 6.96V27.84L9.28 34.8H0" fill="#174D4D"/>
<path d="M0 29H8.12L17.4 24.36V10.44L8.12 5.80005H0" fill="#68C7D3"/>
<path d="M0 5.80005H5.8V29H0" fill="#A1D8DF"/>
<path d="M87 23.2H77.72L63.8 30.1599V51.04L77.72 58H87" fill="#174D4D"/>
<path d="M87 52.2H78.88L69.6 47.56V33.64L78.88 29H87" fill="#68C7D3"/>
<path d="M87 29H81.2V52.2H87" fill="#A1D8DF"/>
<path d="M63.8 49.3001H46.4C40.02 49.3001 34.8 44.0801 34.8 37.7001V26.1H23.2V20.3H37.7C39.44 20.3 40.6 21.46 40.6 23.2V37.7001C40.6 40.8901 43.21 43.5001 46.4 43.5001H63.8V49.3001Z" fill="#D1E6E9"/>
<path d="M63.8 37.6999H49.3C47.56 37.6999 46.4 36.5399 46.4 34.7999V20.2999C46.4 17.11 43.79 14.5 40.6 14.5H23.2V8.69995H40.6C46.98 8.69995 52.2 13.92 52.2 20.2999V31.8999H63.8V37.6999Z" fill="#D1E6E9"/>
</svg>
