<svg width="98" height="74" viewBox="0 0 98 74" fill="none" xmlns="http://www.w3.org/2000/svg">
<rect width="98" height="74" rx="37" fill="#F5FBF9"/>
<path d="M34.5208 59.1069C34.0355 57.5886 33.7929 45.2819 33.7929 40.2473C39.2928 40.3272 46.006 40.487 46.8957 40.8866C48.756 41.5259 49.7266 44.4827 50.2119 47.1199L53.2046 46.6404C53.2046 46.6404 52.881 42.3251 52.881 38.649C52.881 34.973 53.0428 31.7765 53.0428 31.7765L50.0501 31.297C49.8884 33.135 48.9178 35.932 47.0575 36.4114C46.0869 36.7311 39.2928 36.8909 33.7929 37.0508V36.0918C33.7929 34.014 33.712 31.4568 33.712 28.8996C33.712 24.2646 33.7929 19.7894 34.1973 18.8304C34.2781 18.5108 34.5208 18.271 34.6826 18.0313C35.4914 17.5518 37.0281 17.5518 40.6678 17.5518C44.1458 17.5518 47.7046 17.7117 49.7266 19.3898C51.2634 20.6685 53.6256 15.8736 53.5447 18.8304L53.0428 22.5864C53.8516 18.6706 53.5281 17.5518 53.2046 14.1955L28.9139 12.0977L20.5229 18.3909C23.3538 18.8704 24.1679 17.5518 24.8149 19.7095C25.3002 21.3078 25.5429 34.973 25.5429 39.2084C25.5429 43.5238 25.5429 57.6685 24.4105 59.9061C23.8444 61.3445 25.1281 59.4266 22.6207 59.9061H26.8162C26.8162 59.9061 28.16 60.845 31.0117 62.6231C34.7322 62.6231 42.5281 63.4752 42.5281 63.4752V62.6231C39.6972 62.1436 35.1679 61.2646 34.5208 59.1069Z" fill="#174D4D"/>
<path d="M35.399 13.8598C44.3706 13.8598 49.1613 17.6358 51.0775 26.4462H53.7777C54.3875 23.1738 54.823 19.9013 54.823 16.7128C54.823 15.538 54.7359 14.615 54.6488 13.4403C50.8162 11.4265 45.2416 10 36.7926 10C18.5881 10 5 21.7473 5 38.6131C5 54.0524 19.372 64.5411 35.4861 64.5411C45.0674 64.5411 51.8615 61.6881 55.0843 59.3387C55.2585 57.3249 55.3456 55.7306 55.3456 54.2202C55.3456 52.2064 55.1714 50.2765 54.9972 48.0948L52.297 47.927C49.6839 56.7375 44.0222 60.5134 36.6184 60.5134C25.5563 60.5134 15.0169 50.6121 15.0169 36.5154C15.0169 22.6703 24.3369 13.8598 35.399 13.8598Z" fill="#174D4D"/>
<path d="M36.2379 13.8598C45.2095 13.8598 50.0001 17.6358 51.9164 26.4462H54.6166C55.2263 23.1738 55.6618 19.9013 55.6618 16.7128C55.6618 15.538 55.5747 14.615 55.4876 13.4403C51.6551 11.4265 46.0805 10 37.6315 10C19.427 10 5.83887 21.7473 5.83887 38.6131C5.83887 54.0524 20.2109 64.5411 36.325 64.5411C45.9063 64.5411 52.7003 61.6881 55.9232 59.3387C56.0974 57.3249 56.1845 55.7306 56.1845 54.2202C56.1845 52.2064 56.0103 50.2765 55.836 48.0948L53.1359 47.927C50.5228 56.7375 44.8611 60.5134 37.4573 60.5134C26.3952 60.5134 15.8557 50.6121 15.8557 36.5154C15.8557 22.6703 25.1758 13.8598 36.2379 13.8598Z" fill="#F5C946"/>
<path d="M61.431 34.4024H59.2595V32.4051H61.431V34.4024ZM61.3081 47.7591H59.3824V36.3179H61.3081V47.7591Z" fill="#F5C946"/>
<path d="M73.2922 44.4609C73.2922 45.5057 72.8586 46.3627 71.9914 47.0319C71.131 47.7011 69.953 48.0357 68.4576 48.0357C67.6108 48.0357 66.8324 47.9366 66.1222 47.7386C65.4189 47.5338 64.8282 47.3118 64.3502 47.0728V44.9116H64.4526C65.0604 45.3691 65.7364 45.7344 66.4807 46.0076C67.225 46.2739 67.9386 46.4071 68.6215 46.4071C69.4682 46.4071 70.1306 46.2705 70.6086 45.9973C71.0866 45.7242 71.3256 45.294 71.3256 44.7067C71.3256 44.2561 71.1958 43.9146 70.9364 43.6825C70.6769 43.4503 70.1784 43.2523 69.4409 43.0884C69.1678 43.0269 68.8093 42.9552 68.3654 42.8733C67.9284 42.7913 67.5289 42.7026 67.167 42.607C66.1632 42.3406 65.4496 41.9514 65.0262 41.4393C64.6097 40.9203 64.4014 40.2852 64.4014 39.5341C64.4014 39.0629 64.497 38.6191 64.6882 38.2025C64.8863 37.786 65.1833 37.4138 65.5794 37.0861C65.9618 36.7651 66.4466 36.5125 67.0338 36.3281C67.6279 36.1369 68.2903 36.0413 69.0209 36.0413C69.7038 36.0413 70.3935 36.1267 71.09 36.2974C71.7933 36.4613 72.3772 36.6627 72.8415 36.9017V38.9605H72.7391C72.2474 38.5986 71.6499 38.2947 70.9466 38.0489C70.2433 37.7962 69.5536 37.6699 68.8775 37.6699C68.1742 37.6699 67.5801 37.8065 67.0953 38.0796C66.6105 38.3459 66.3681 38.7454 66.3681 39.278C66.3681 39.7492 66.5149 40.1043 66.8085 40.3433C67.0953 40.5823 67.5596 40.7769 68.2015 40.9271C68.5566 41.0091 68.9527 41.091 69.3897 41.173C69.8335 41.2549 70.2023 41.33 70.4959 41.3983C71.3905 41.6032 72.0801 41.9548 72.565 42.4533C73.0498 42.9586 73.2922 43.6278 73.2922 44.4609Z" fill="#F5C946"/>
<path d="M78.1268 34.4024H75.9553V32.4051H78.1268V34.4024ZM78.0039 47.7591H76.0783V36.3179H78.0039V47.7591Z" fill="#F5C946"/>
<path d="M91.5654 42.0436C91.5654 43.9078 91.0874 45.3794 90.1314 46.4583C89.1754 47.5372 87.8951 48.0766 86.2904 48.0766C84.672 48.0766 83.3848 47.5372 82.4288 46.4583C81.4797 45.3794 81.0051 43.9078 81.0051 42.0436C81.0051 40.1794 81.4797 38.7079 82.4288 37.6289C83.3848 36.5432 84.672 36.0003 86.2904 36.0003C87.8951 36.0003 89.1754 36.5432 90.1314 37.6289C91.0874 38.7079 91.5654 40.1794 91.5654 42.0436ZM89.5783 42.0436C89.5783 40.5618 89.2881 39.4624 88.7077 38.7454C88.1273 38.0216 87.3215 37.6597 86.2904 37.6597C85.2456 37.6597 84.433 38.0216 83.8526 38.7454C83.279 39.4624 82.9922 40.5618 82.9922 42.0436C82.9922 43.4776 83.2824 44.5668 83.8628 45.3111C84.4432 46.0486 85.2524 46.4173 86.2904 46.4173C87.3147 46.4173 88.117 46.052 88.6974 45.3213C89.2847 44.5838 89.5783 43.4913 89.5783 42.0436Z" fill="#F5C946"/>
<path d="M61.9369 34.4903H59.7654V32.493H61.9369V34.4903ZM61.8139 47.847H59.8883V36.4057H61.8139V47.847Z" fill="#174D4D"/>
<path d="M73.7981 44.5488C73.7981 45.5935 73.3645 46.4505 72.4972 47.1197C71.6368 47.7889 70.4589 48.1235 68.9634 48.1235C68.1167 48.1235 67.3383 48.0245 66.6281 47.8265C65.9247 47.6216 65.3341 47.3997 64.8561 47.1607V44.9995H64.9585C65.5662 45.457 66.2423 45.8223 66.9866 46.0954C67.7309 46.3618 68.4445 46.4949 69.1273 46.4949C69.9741 46.4949 70.6364 46.3583 71.1144 46.0852C71.5924 45.8121 71.8314 45.3819 71.8314 44.7946C71.8314 44.3439 71.7017 44.0025 71.4422 43.7703C71.1827 43.5381 70.6842 43.3401 69.9468 43.1762C69.6736 43.1148 69.3151 43.0431 68.8713 42.9611C68.4342 42.8792 68.0348 42.7904 67.6729 42.6948C66.6691 42.4285 65.9555 42.0393 65.5321 41.5271C65.1156 41.0082 64.9073 40.3731 64.9073 39.622C64.9073 39.1508 65.0029 38.7069 65.1941 38.2904C65.3921 37.8739 65.6892 37.5017 66.0852 37.1739C66.4676 36.853 66.9524 36.6003 67.5397 36.416C68.1338 36.2248 68.7961 36.1292 69.5268 36.1292C70.2097 36.1292 70.8993 36.2145 71.5959 36.3852C72.2992 36.5491 72.883 36.7506 73.3474 36.9896V39.0484H73.245C72.7533 38.6865 72.1558 38.3826 71.4525 38.1368C70.7491 37.8841 70.0594 37.7578 69.3834 37.7578C68.6801 37.7578 68.086 37.8943 67.6012 38.1675C67.1163 38.4338 66.8739 38.8333 66.8739 39.3659C66.8739 39.8371 67.0207 40.1922 67.3144 40.4312C67.6012 40.6701 68.0655 40.8648 68.7074 41.015C69.0625 41.0969 69.4585 41.1789 69.8955 41.2608C70.3394 41.3428 70.7081 41.4179 71.0018 41.4862C71.8963 41.691 72.586 42.0427 73.0708 42.5412C73.5557 43.0465 73.7981 43.7157 73.7981 44.5488Z" fill="#174D4D"/>
<path d="M78.6327 34.4903H76.4612V32.493H78.6327V34.4903ZM78.5098 47.847H76.5841V36.4057H78.5098V47.847Z" fill="#174D4D"/>
<path d="M92.0713 42.1315C92.0713 43.9957 91.5933 45.4672 90.6373 46.5461C89.6813 47.625 88.4009 48.1645 86.7962 48.1645C85.1779 48.1645 83.8907 47.625 82.9347 46.5461C81.9855 45.4672 81.5109 43.9957 81.5109 42.1315C81.5109 40.2673 81.9855 38.7957 82.9347 37.7168C83.8907 36.6311 85.1779 36.0882 86.7962 36.0882C88.4009 36.0882 89.6813 36.6311 90.6373 37.7168C91.5933 38.7957 92.0713 40.2673 92.0713 42.1315ZM90.0842 42.1315C90.0842 40.6497 89.794 39.5503 89.2135 38.8333C88.6331 38.1094 87.8273 37.7475 86.7962 37.7475C85.7515 37.7475 84.9389 38.1094 84.3584 38.8333C83.7848 39.5503 83.498 40.6497 83.498 42.1315C83.498 43.5655 83.7883 44.6546 84.3687 45.3989C84.9491 46.1364 85.7583 46.5052 86.7962 46.5052C87.8205 46.5052 88.6229 46.1398 89.2033 45.4092C89.7906 44.6717 90.0842 43.5791 90.0842 42.1315Z" fill="#174D4D"/>
<path d="M67.053 62.926H65.5206V61.9509C65.3841 62.0438 65.1983 62.1749 64.9634 62.3442C64.734 62.5081 64.51 62.6392 64.2915 62.7375C64.0348 62.8632 63.7398 62.967 63.4065 63.0489C63.0733 63.1363 62.6827 63.18 62.2347 63.18C61.4099 63.18 60.7106 62.9069 60.137 62.3606C59.5634 61.8143 59.2766 61.1178 59.2766 60.2711C59.2766 59.5773 59.4241 59.0173 59.7191 58.5912C60.0196 58.1597 60.4457 57.821 60.9974 57.5751C61.5546 57.3293 62.2238 57.1627 63.005 57.0753C63.7862 56.9879 64.6247 56.9223 65.5206 56.8786V56.641C65.5206 56.2914 65.4578 56.0018 65.3322 55.7724C65.212 55.543 65.0372 55.3627 64.8077 55.2316C64.5892 55.1059 64.327 55.0213 64.0211 54.9776C63.7152 54.9339 63.3956 54.912 63.0624 54.912C62.6581 54.912 62.2074 54.9666 61.7103 55.0759C61.2132 55.1797 60.6997 55.3326 60.1698 55.5348H60.0878V53.9697C60.3883 53.8877 60.8226 53.7976 61.3907 53.6993C61.9589 53.6009 62.5188 53.5518 63.0706 53.5518C63.7152 53.5518 64.2751 53.6064 64.7504 53.7156C65.2311 53.8194 65.6463 53.9997 65.9959 54.2565C66.3401 54.5078 66.6023 54.8328 66.7826 55.2316C66.9628 55.6304 67.053 56.1248 67.053 56.7147V62.926ZM65.5206 60.6726V58.1242C65.0508 58.1515 64.4964 58.1924 63.8572 58.2471C63.2235 58.3017 62.7209 58.3809 62.3495 58.4847C61.907 58.6104 61.5492 58.807 61.276 59.0747C61.0029 59.3369 60.8663 59.7002 60.8663 60.1645C60.8663 60.689 61.0247 61.085 61.3416 61.3527C61.6584 61.6149 62.1419 61.746 62.792 61.746C63.3328 61.746 63.8272 61.6422 64.2751 61.4346C64.7231 61.2216 65.1382 60.9676 65.5206 60.6726Z" fill="#174D4D"/>
<path d="M75.7307 55.4528H75.6488C75.4193 55.3982 75.1953 55.36 74.9768 55.3381C74.7638 55.3108 74.5098 55.2971 74.2148 55.2971C73.7395 55.2971 73.2806 55.4037 72.8381 55.6167C72.3956 55.8243 71.9695 56.0947 71.5598 56.4279V62.926H70.0193V53.773H71.5598V55.1251C72.1717 54.6334 72.7098 54.2865 73.1741 54.0844C73.6439 53.8768 74.1219 53.773 74.6081 53.773C74.8758 53.773 75.0697 53.7812 75.1899 53.7976C75.3101 53.8085 75.4903 53.8331 75.7307 53.8713V55.4528Z" fill="#174D4D"/>
<path d="M84.8427 58.5093H78.0989C78.0989 59.072 78.1835 59.5636 78.3529 59.9843C78.5222 60.3994 78.7544 60.7409 79.0494 61.0085C79.3335 61.2708 79.6694 61.4674 80.0573 61.5985C80.4506 61.7296 80.8822 61.7952 81.352 61.7952C81.9747 61.7952 82.6002 61.6723 83.2285 61.4265C83.8622 61.1752 84.3128 60.9293 84.5805 60.689H84.6625V62.3688C84.1435 62.5873 83.6136 62.7703 83.0728 62.9178C82.532 63.0653 81.9638 63.1391 81.3684 63.1391C79.8497 63.1391 78.6643 62.7293 77.8121 61.9099C76.9598 61.085 76.5337 59.916 76.5337 58.4028C76.5337 56.9059 76.9407 55.7178 77.7547 54.8383C78.5741 53.9587 79.6503 53.519 80.9832 53.519C82.2178 53.519 83.1684 53.8795 83.8348 54.6006C84.5068 55.3217 84.8427 56.346 84.8427 57.6735V58.5093ZM83.3432 57.3293C83.3377 56.5208 83.1329 55.8953 82.7286 55.4528C82.3298 55.0103 81.7207 54.7891 80.9013 54.7891C80.0764 54.7891 79.4181 55.0322 78.9265 55.5184C78.4403 56.0046 78.1644 56.6082 78.0989 57.3293H83.3432Z" fill="#174D4D"/>
<path d="M67.6287 63.0741H66.0963V62.099C65.9598 62.1919 65.774 62.323 65.5391 62.4923C65.3097 62.6562 65.0857 62.7873 64.8672 62.8857C64.6104 63.0113 64.3154 63.1151 63.9822 63.1971C63.649 63.2845 63.2584 63.3282 62.8104 63.3282C61.9855 63.3282 61.2863 63.055 60.7127 62.5087C60.1391 61.9624 59.8523 61.2659 59.8523 60.4192C59.8523 59.7254 59.9998 59.1655 60.2948 58.7394C60.5952 58.3078 61.0213 57.9691 61.5731 57.7233C62.1303 57.4775 62.7995 57.3108 63.5807 57.2234C64.3619 57.136 65.2004 57.0705 66.0963 57.0268V56.7891C66.0963 56.4395 66.0335 56.15 65.9079 55.9205C65.7877 55.6911 65.6129 55.5108 65.3834 55.3797C65.1649 55.2541 64.9027 55.1694 64.5968 55.1257C64.2909 55.082 63.9713 55.0601 63.638 55.0601C63.2338 55.0601 62.7831 55.1148 62.286 55.224C61.7889 55.3278 61.2754 55.4808 60.7455 55.6829H60.6635V54.1178C60.964 54.0359 61.3983 53.9457 61.9664 53.8474C62.5346 53.7491 63.0945 53.6999 63.6462 53.6999C64.2909 53.6999 64.8508 53.7545 65.3261 53.8638C65.8068 53.9676 66.222 54.1478 66.5716 54.4046C66.9158 54.6559 67.178 54.9809 67.3582 55.3797C67.5385 55.7785 67.6287 56.2729 67.6287 56.8629V63.0741ZM66.0963 60.8207V58.2723C65.6265 58.2996 65.072 58.3406 64.4329 58.3952C63.7992 58.4498 63.2966 58.529 62.9251 58.6328C62.4827 58.7585 62.1248 58.9552 61.8517 59.2228C61.5786 59.485 61.442 59.8483 61.442 60.3127C61.442 60.8371 61.6004 61.2332 61.9173 61.5008C62.2341 61.7631 62.7176 61.8942 63.3676 61.8942C63.9085 61.8942 64.4028 61.7904 64.8508 61.5828C65.2988 61.3697 65.7139 61.1157 66.0963 60.8207Z" fill="#F5C946"/>
<path d="M76.3064 55.601H76.2244C75.995 55.5463 75.771 55.5081 75.5525 55.4862C75.3395 55.4589 75.0854 55.4453 74.7905 55.4453C74.3152 55.4453 73.8563 55.5518 73.4138 55.7648C72.9713 55.9724 72.5452 56.2428 72.1355 56.5761V63.0741H70.595V53.9211H72.1355V55.2732C72.7473 54.7815 73.2854 54.4346 73.7498 54.2325C74.2196 54.0249 74.6976 53.9211 75.1838 53.9211C75.4515 53.9211 75.6454 53.9293 75.7656 53.9457C75.8858 53.9566 76.066 53.9812 76.3064 54.0195V55.601Z" fill="#F5C946"/>
<path d="M85.4184 58.6574H78.6745C78.6745 59.2201 78.7592 59.7118 78.9286 60.1324C79.0979 60.5476 79.3301 60.889 79.6251 61.1567C79.9091 61.4189 80.2451 61.6156 80.633 61.7467C81.0263 61.8778 81.4579 61.9433 81.9277 61.9433C82.5504 61.9433 83.1759 61.8204 83.8042 61.5746C84.4378 61.3233 84.8885 61.0775 85.1562 60.8371H85.2381V62.5169C84.7192 62.7354 84.1893 62.9184 83.6485 63.0659C83.1076 63.2134 82.5395 63.2872 81.9441 63.2872C80.4254 63.2872 79.2399 62.8775 78.3877 62.058C77.5355 61.2332 77.1094 60.0641 77.1094 58.5509C77.1094 57.0541 77.5164 55.8659 78.3304 54.9864C79.1498 54.1069 80.226 53.6671 81.5589 53.6671C82.7935 53.6671 83.7441 54.0277 84.4105 54.7488C85.0825 55.4699 85.4184 56.4941 85.4184 57.8216V58.6574ZM83.9189 57.4775C83.9134 56.6689 83.7086 56.0435 83.3043 55.601C82.9055 55.1585 82.2964 54.9372 81.477 54.9372C80.6521 54.9372 79.9938 55.1803 79.5022 55.6665C79.016 56.1527 78.7401 56.7564 78.6745 57.4775H83.9189Z" fill="#F5C946"/>
</svg>
